<mxfile host="app.diagrams.net" agent="Mozilla/5.0 (Windows NT 10.0; Win64; x64) AppleWebKit/537.36 (KHTML, like Gecko) Chrome/130.0.0.0 Safari/537.36" version="24.8.3">
  <diagram id="_Zeu2Und_BIN9iEwyCzT" name="Page-1">
    <mxGraphModel dx="2523" dy="1545" grid="1" gridSize="10" guides="1" tooltips="1" connect="1" arrows="1" fold="1" page="1" pageScale="1" pageWidth="1600" pageHeight="1200" math="0" shadow="0">
      <root>
        <mxCell id="0" />
        <mxCell id="1" parent="0" />
        <mxCell id="a6Zs2eqveyUoSRwlcodf-14" value="&lt;b style=&quot;&quot;&gt;&lt;font color=&quot;#803e74&quot; style=&quot;font-size: 22px;&quot;&gt;flask_app:5001&lt;/font&gt;&lt;/b&gt;" style="rounded=1;whiteSpace=wrap;html=1;verticalAlign=top;" vertex="1" parent="1">
          <mxGeometry x="1547" y="115" width="539" height="850" as="geometry" />
        </mxCell>
        <mxCell id="a6Zs2eqveyUoSRwlcodf-38" value="&lt;b&gt;&lt;font style=&quot;font-size: 13px;&quot; color=&quot;#ff0000&quot;&gt;scripts&lt;/font&gt;&lt;/b&gt;" style="rounded=1;whiteSpace=wrap;html=1;fillColor=#fff2cc;strokeColor=#d6b656;verticalAlign=top;" vertex="1" parent="1">
          <mxGeometry x="1794" y="446" width="272" height="330" as="geometry" />
        </mxCell>
        <mxCell id="iOH8eXoNTPQZBnvEToZv-1" value="&lt;b style=&quot;&quot;&gt;&lt;font color=&quot;#803e74&quot; style=&quot;font-size: 22px;&quot;&gt;flask_app:5000&lt;/font&gt;&lt;/b&gt;" style="rounded=1;whiteSpace=wrap;html=1;verticalAlign=top;" parent="1" vertex="1">
          <mxGeometry x="130" y="115" width="1210" height="850" as="geometry" />
        </mxCell>
        <mxCell id="a6Zs2eqveyUoSRwlcodf-20" value="&lt;b&gt;&lt;font style=&quot;font-size: 13px;&quot; color=&quot;#ff0000&quot;&gt;templates&lt;/font&gt;&lt;/b&gt;" style="rounded=1;whiteSpace=wrap;html=1;fillColor=#d0cee2;strokeColor=#56517e;verticalAlign=bottom;" vertex="1" parent="1">
          <mxGeometry x="960" y="190" width="160" height="100" as="geometry" />
        </mxCell>
        <mxCell id="a6Zs2eqveyUoSRwlcodf-4" value="&lt;b&gt;&lt;font style=&quot;font-size: 13px;&quot; color=&quot;#007fff&quot;&gt;functions&lt;/font&gt;&lt;/b&gt;" style="rounded=1;whiteSpace=wrap;html=1;fillColor=#dae8fc;strokeColor=#6c8ebf;verticalAlign=top;" vertex="1" parent="1">
          <mxGeometry x="1569" y="446" width="180" height="330" as="geometry" />
        </mxCell>
        <mxCell id="iOH8eXoNTPQZBnvEToZv-2" value="&lt;b&gt;&lt;font color=&quot;#990000&quot; style=&quot;font-size: 22px;&quot;&gt;mongodb:27017&lt;/font&gt;&lt;/b&gt;" style="rounded=1;whiteSpace=wrap;html=1;verticalAlign=bottom;" parent="1" vertex="1">
          <mxGeometry x="140" y="1075" width="1940" height="290" as="geometry" />
        </mxCell>
        <mxCell id="RmUFOiHxUIWrtxg6m0vL-1" value="&lt;b&gt;&lt;font color=&quot;#ff9999&quot; style=&quot;font-size: 14px;&quot;&gt;app_data_form&lt;/font&gt;&lt;/b&gt;" style="shape=cylinder3;whiteSpace=wrap;html=1;boundedLbl=1;backgroundOutline=1;size=15;verticalAlign=bottom;fillColor=#ffcc99;strokeColor=#36393d;fillStyle=hatch;" parent="1" vertex="1">
          <mxGeometry x="1590" y="1100" width="410" height="240" as="geometry" />
        </mxCell>
        <mxCell id="iOH8eXoNTPQZBnvEToZv-3" value="&lt;b&gt;&lt;font color=&quot;#ff9999&quot; style=&quot;font-size: 14px;&quot;&gt;app_data&lt;/font&gt;&lt;/b&gt;" style="shape=cylinder3;whiteSpace=wrap;html=1;boundedLbl=1;backgroundOutline=1;size=15;verticalAlign=bottom;fillColor=#ffcc99;strokeColor=#36393d;fillStyle=hatch;" parent="1" vertex="1">
          <mxGeometry x="310" y="1100" width="750" height="240" as="geometry" />
        </mxCell>
        <mxCell id="iOH8eXoNTPQZBnvEToZv-51" value="&lt;b&gt;&lt;font style=&quot;font-size: 13px;&quot; color=&quot;#ff0000&quot;&gt;scripts&lt;/font&gt;&lt;/b&gt;" style="rounded=1;whiteSpace=wrap;html=1;fillColor=#fff2cc;strokeColor=#d6b656;verticalAlign=top;" parent="1" vertex="1">
          <mxGeometry x="150" y="446" width="950" height="330" as="geometry" />
        </mxCell>
        <mxCell id="iOH8eXoNTPQZBnvEToZv-49" value="&lt;b&gt;&lt;font style=&quot;font-size: 13px;&quot; color=&quot;#007fff&quot;&gt;functions&lt;/font&gt;&lt;/b&gt;" style="rounded=1;whiteSpace=wrap;html=1;fillColor=#dae8fc;strokeColor=#6c8ebf;verticalAlign=top;" parent="1" vertex="1">
          <mxGeometry x="1136" y="446" width="180" height="330" as="geometry" />
        </mxCell>
        <mxCell id="iOH8eXoNTPQZBnvEToZv-33" style="edgeStyle=orthogonalEdgeStyle;curved=1;rounded=0;orthogonalLoop=1;jettySize=auto;html=1;exitX=0.5;exitY=0;exitDx=0;exitDy=0;entryX=0;entryY=0.25;entryDx=0;entryDy=0;strokeColor=none;" parent="1" source="iOH8eXoNTPQZBnvEToZv-4" target="iOH8eXoNTPQZBnvEToZv-6" edge="1">
          <mxGeometry relative="1" as="geometry" />
        </mxCell>
        <mxCell id="iOH8eXoNTPQZBnvEToZv-4" value="ml_gridsearchcv" style="rounded=1;whiteSpace=wrap;html=1;fillColor=#ffe6cc;strokeColor=#d79b00;" parent="1" vertex="1">
          <mxGeometry x="190" y="636" width="120" height="60" as="geometry" />
        </mxCell>
        <mxCell id="iOH8eXoNTPQZBnvEToZv-29" style="edgeStyle=orthogonalEdgeStyle;curved=1;rounded=0;orthogonalLoop=1;jettySize=auto;html=1;exitX=0.5;exitY=1;exitDx=0;exitDy=0;entryX=0.5;entryY=0;entryDx=0;entryDy=0;entryPerimeter=0;fillColor=#f8cecc;strokeColor=#b85450;strokeWidth=2;" parent="1" source="iOH8eXoNTPQZBnvEToZv-5" target="iOH8eXoNTPQZBnvEToZv-16" edge="1">
          <mxGeometry relative="1" as="geometry">
            <Array as="points">
              <mxPoint x="430" y="1180" />
            </Array>
          </mxGeometry>
        </mxCell>
        <mxCell id="iOH8eXoNTPQZBnvEToZv-5" value="concat_db.py" style="rounded=1;whiteSpace=wrap;html=1;fillColor=#ffe6cc;strokeColor=#d79b00;" parent="1" vertex="1">
          <mxGeometry x="370" y="636" width="120" height="60" as="geometry" />
        </mxCell>
        <mxCell id="iOH8eXoNTPQZBnvEToZv-41" value="" style="ellipse;whiteSpace=wrap;html=1;fillColor=none;strokeColor=#432D57;strokeWidth=2;fontColor=#ffffff;" parent="1" vertex="1">
          <mxGeometry x="160" y="481" width="180" height="260" as="geometry" />
        </mxCell>
        <mxCell id="iOH8eXoNTPQZBnvEToZv-20" style="edgeStyle=orthogonalEdgeStyle;curved=1;rounded=0;orthogonalLoop=1;jettySize=auto;html=1;exitX=0.5;exitY=1;exitDx=0;exitDy=0;entryX=0.5;entryY=0;entryDx=0;entryDy=0;fillColor=#d80073;strokeColor=#A50040;strokeWidth=2;" parent="1" source="iOH8eXoNTPQZBnvEToZv-6" target="iOH8eXoNTPQZBnvEToZv-18" edge="1">
          <mxGeometry relative="1" as="geometry" />
        </mxCell>
        <mxCell id="iOH8eXoNTPQZBnvEToZv-25" style="edgeStyle=orthogonalEdgeStyle;curved=1;rounded=0;orthogonalLoop=1;jettySize=auto;html=1;exitX=0.5;exitY=1;exitDx=0;exitDy=0;entryX=1;entryY=0.5;entryDx=0;entryDy=0;fillColor=#d80073;strokeColor=#A50040;strokeWidth=2;" parent="1" source="a6Zs2eqveyUoSRwlcodf-13" target="a6Zs2eqveyUoSRwlcodf-7" edge="1">
          <mxGeometry relative="1" as="geometry">
            <Array as="points">
              <mxPoint x="1766" y="425" />
              <mxPoint x="1766" y="715" />
            </Array>
          </mxGeometry>
        </mxCell>
        <mxCell id="iOH8eXoNTPQZBnvEToZv-32" style="edgeStyle=orthogonalEdgeStyle;curved=1;rounded=0;orthogonalLoop=1;jettySize=auto;html=1;exitX=0.5;exitY=1;exitDx=0;exitDy=0;fillColor=#d80073;strokeColor=#A50040;strokeWidth=2;" parent="1" source="iOH8eXoNTPQZBnvEToZv-6" target="iOH8eXoNTPQZBnvEToZv-5" edge="1">
          <mxGeometry relative="1" as="geometry" />
        </mxCell>
        <mxCell id="iOH8eXoNTPQZBnvEToZv-6" value="app.py" style="rounded=1;whiteSpace=wrap;html=1;fontStyle=1;fillColor=#FF9CE4;" parent="1" vertex="1">
          <mxGeometry x="150" y="365" width="1170" height="60" as="geometry" />
        </mxCell>
        <mxCell id="iOH8eXoNTPQZBnvEToZv-24" style="edgeStyle=orthogonalEdgeStyle;curved=1;rounded=0;orthogonalLoop=1;jettySize=auto;html=1;exitX=0.5;exitY=1;exitDx=0;exitDy=0;entryX=0.5;entryY=0;entryDx=0;entryDy=0;fillColor=#f8cecc;strokeColor=#b85450;strokeWidth=2;" parent="1" source="iOH8eXoNTPQZBnvEToZv-10" target="iOH8eXoNTPQZBnvEToZv-23" edge="1">
          <mxGeometry relative="1" as="geometry" />
        </mxCell>
        <mxCell id="iOH8eXoNTPQZBnvEToZv-21" style="edgeStyle=orthogonalEdgeStyle;curved=1;rounded=0;orthogonalLoop=1;jettySize=auto;html=1;exitX=1;exitY=1;exitDx=0;exitDy=0;fillColor=#d80073;strokeColor=#A50040;strokeWidth=2;" parent="1" source="iOH8eXoNTPQZBnvEToZv-18" target="iOH8eXoNTPQZBnvEToZv-10" edge="1">
          <mxGeometry relative="1" as="geometry" />
        </mxCell>
        <mxCell id="iOH8eXoNTPQZBnvEToZv-18" value="" style="ellipse;whiteSpace=wrap;html=1;fillColor=none;strokeColor=#A50040;strokeWidth=2;fontColor=#ffffff;" parent="1" vertex="1">
          <mxGeometry x="790" y="536" width="300" height="210" as="geometry" />
        </mxCell>
        <mxCell id="iOH8eXoNTPQZBnvEToZv-28" style="edgeStyle=orthogonalEdgeStyle;curved=1;rounded=0;orthogonalLoop=1;jettySize=auto;html=1;exitX=0;exitY=0.5;exitDx=0;exitDy=0;entryX=0;entryY=0.5;entryDx=0;entryDy=0;fillColor=#d5e8d4;strokeColor=#82b366;strokeWidth=2;" parent="1" source="iOH8eXoNTPQZBnvEToZv-2" target="iOH8eXoNTPQZBnvEToZv-6" edge="1">
          <mxGeometry relative="1" as="geometry">
            <Array as="points">
              <mxPoint x="10" y="1220" />
              <mxPoint x="10" y="395" />
            </Array>
          </mxGeometry>
        </mxCell>
        <mxCell id="iOH8eXoNTPQZBnvEToZv-15" value="form_flight_infos" style="shape=cylinder3;whiteSpace=wrap;html=1;boundedLbl=1;backgroundOutline=1;size=15;" parent="1" vertex="1">
          <mxGeometry x="1629" y="1180" width="60" height="80" as="geometry" />
        </mxCell>
        <mxCell id="iOH8eXoNTPQZBnvEToZv-31" style="edgeStyle=orthogonalEdgeStyle;curved=1;rounded=0;orthogonalLoop=1;jettySize=auto;html=1;exitX=0;exitY=0.5;exitDx=0;exitDy=0;exitPerimeter=0;entryX=0.5;entryY=1;entryDx=0;entryDy=0;fillColor=#dae8fc;strokeColor=#6c8ebf;strokeWidth=2;" parent="1" source="iOH8eXoNTPQZBnvEToZv-16" target="iOH8eXoNTPQZBnvEToZv-41" edge="1">
          <mxGeometry relative="1" as="geometry" />
        </mxCell>
        <mxCell id="iOH8eXoNTPQZBnvEToZv-16" value="final_flights" style="shape=cylinder3;whiteSpace=wrap;html=1;boundedLbl=1;backgroundOutline=1;size=15;" parent="1" vertex="1">
          <mxGeometry x="400" y="1180" width="60" height="80" as="geometry" />
        </mxCell>
        <mxCell id="iOH8eXoNTPQZBnvEToZv-17" value="HTTP" style="rounded=0;whiteSpace=wrap;html=1;fillColor=#d5e8d4;strokeColor=#82b366;" parent="1" vertex="1">
          <mxGeometry x="1556" width="120" height="60" as="geometry" />
        </mxCell>
        <mxCell id="iOH8eXoNTPQZBnvEToZv-30" style="edgeStyle=orthogonalEdgeStyle;curved=1;rounded=0;orthogonalLoop=1;jettySize=auto;html=1;exitX=0.5;exitY=0;exitDx=0;exitDy=0;entryX=0.75;entryY=1;entryDx=0;entryDy=0;fillColor=#dae8fc;strokeColor=#6c8ebf;strokeWidth=2;" parent="1" source="iOH8eXoNTPQZBnvEToZv-23" target="iOH8eXoNTPQZBnvEToZv-5" edge="1">
          <mxGeometry relative="1" as="geometry">
            <Array as="points">
              <mxPoint x="685" y="905" />
              <mxPoint x="460" y="905" />
            </Array>
          </mxGeometry>
        </mxCell>
        <mxCell id="iOH8eXoNTPQZBnvEToZv-23" value="" style="ellipse;whiteSpace=wrap;html=1;fillColor=none;strokeColor=#b85450;" parent="1" vertex="1">
          <mxGeometry x="505" y="1145" width="360" height="150" as="geometry" />
        </mxCell>
        <mxCell id="iOH8eXoNTPQZBnvEToZv-7" value="all_flights.py" style="rounded=1;whiteSpace=wrap;html=1;fillColor=#ffe6cc;strokeColor=#d79b00;" parent="1" vertex="1">
          <mxGeometry x="880" y="556" width="120" height="60" as="geometry" />
        </mxCell>
        <mxCell id="iOH8eXoNTPQZBnvEToZv-8" value="asia_flights.py" style="rounded=1;whiteSpace=wrap;html=1;fillColor=#ffe6cc;strokeColor=#d79b00;" parent="1" vertex="1">
          <mxGeometry x="815" y="636" width="120" height="60" as="geometry" />
        </mxCell>
        <mxCell id="iOH8eXoNTPQZBnvEToZv-9" value="europe_flights.py" style="rounded=1;whiteSpace=wrap;html=1;fillColor=#ffe6cc;strokeColor=#d79b00;" parent="1" vertex="1">
          <mxGeometry x="945" y="636" width="120" height="60" as="geometry" />
        </mxCell>
        <mxCell id="iOH8eXoNTPQZBnvEToZv-11" value="all_flights" style="shape=cylinder3;whiteSpace=wrap;html=1;boundedLbl=1;backgroundOutline=1;size=15;" parent="1" vertex="1">
          <mxGeometry x="615" y="1180" width="60" height="80" as="geometry" />
        </mxCell>
        <mxCell id="iOH8eXoNTPQZBnvEToZv-13" value="europe_flights" style="shape=cylinder3;whiteSpace=wrap;html=1;boundedLbl=1;backgroundOutline=1;size=15;" parent="1" vertex="1">
          <mxGeometry x="695" y="1180" width="60" height="80" as="geometry" />
        </mxCell>
        <mxCell id="iOH8eXoNTPQZBnvEToZv-14" value="asia_flights" style="shape=cylinder3;whiteSpace=wrap;html=1;boundedLbl=1;backgroundOutline=1;size=15;" parent="1" vertex="1">
          <mxGeometry x="775" y="1180" width="60" height="80" as="geometry" />
        </mxCell>
        <mxCell id="iOH8eXoNTPQZBnvEToZv-27" style="edgeStyle=orthogonalEdgeStyle;curved=1;rounded=0;orthogonalLoop=1;jettySize=auto;html=1;exitX=0.5;exitY=1;exitDx=0;exitDy=0;entryX=0.5;entryY=0;entryDx=0;entryDy=0;entryPerimeter=0;fillColor=#f8cecc;strokeColor=#b85450;strokeWidth=2;" parent="1" source="a6Zs2eqveyUoSRwlcodf-7" target="iOH8eXoNTPQZBnvEToZv-15" edge="1">
          <mxGeometry relative="1" as="geometry" />
        </mxCell>
        <mxCell id="iOH8eXoNTPQZBnvEToZv-35" value="" style="endArrow=classic;startArrow=classic;html=1;rounded=0;curved=1;edgeStyle=orthogonalEdgeStyle;exitX=0.5;exitY=0;exitDx=0;exitDy=0;entryX=0.25;entryY=1;entryDx=0;entryDy=0;fillColor=#76608a;strokeColor=#432D57;strokeWidth=2;" parent="1" source="iOH8eXoNTPQZBnvEToZv-41" target="iOH8eXoNTPQZBnvEToZv-6" edge="1">
          <mxGeometry width="50" height="50" relative="1" as="geometry">
            <mxPoint x="680" y="435" as="sourcePoint" />
            <mxPoint x="730" y="385" as="targetPoint" />
          </mxGeometry>
        </mxCell>
        <mxCell id="iOH8eXoNTPQZBnvEToZv-37" value="" style="endArrow=classic;startArrow=classic;html=1;rounded=0;curved=1;entryX=0.5;entryY=1;entryDx=0;entryDy=0;exitX=0.25;exitY=0;exitDx=0;exitDy=0;fillColor=#d0cee2;strokeColor=#56517e;strokeWidth=3;edgeStyle=orthogonalEdgeStyle;" parent="1" source="iOH8eXoNTPQZBnvEToZv-52" target="iOH8eXoNTPQZBnvEToZv-17" edge="1">
          <mxGeometry width="50" height="50" relative="1" as="geometry">
            <mxPoint x="1818" y="330" as="sourcePoint" />
            <mxPoint x="1868" y="280" as="targetPoint" />
          </mxGeometry>
        </mxCell>
        <mxCell id="iOH8eXoNTPQZBnvEToZv-39" value="ml_compare" style="rounded=1;whiteSpace=wrap;html=1;fillColor=#ffe6cc;strokeColor=#d79b00;" parent="1" vertex="1">
          <mxGeometry x="190" y="536" width="120" height="60" as="geometry" />
        </mxCell>
        <mxCell id="iOH8eXoNTPQZBnvEToZv-42" value="temp_col" style="shape=cylinder3;whiteSpace=wrap;html=1;boundedLbl=1;backgroundOutline=1;size=15;" parent="1" vertex="1">
          <mxGeometry x="540" y="1180" width="60" height="80" as="geometry" />
        </mxCell>
        <mxCell id="iOH8eXoNTPQZBnvEToZv-45" value="" style="endArrow=classic;startArrow=classic;html=1;rounded=0;curved=1;exitX=0.5;exitY=0;exitDx=0;exitDy=0;entryX=0.5;entryY=1;entryDx=0;entryDy=0;strokeColor=#735B00;strokeWidth=3;" parent="1" source="iOH8eXoNTPQZBnvEToZv-10" target="iOH8eXoNTPQZBnvEToZv-43" edge="1">
          <mxGeometry width="50" height="50" relative="1" as="geometry">
            <mxPoint x="1080" y="546" as="sourcePoint" />
            <mxPoint x="1130" y="496" as="targetPoint" />
          </mxGeometry>
        </mxCell>
        <mxCell id="iOH8eXoNTPQZBnvEToZv-47" value="Visualcrossing API&lt;br&gt;LHOpenAPI&lt;br&gt;Aviationstack API" style="rounded=0;whiteSpace=wrap;html=1;fillColor=#735B00;fontColor=#ffffff;strokeColor=#735B00;" parent="1" vertex="1">
          <mxGeometry x="1386" y="626" width="120" height="70" as="geometry" />
        </mxCell>
        <mxCell id="iOH8eXoNTPQZBnvEToZv-48" value="" style="endArrow=classic;startArrow=classic;html=1;rounded=0;curved=1;exitX=1;exitY=0.5;exitDx=0;exitDy=0;entryX=0.5;entryY=0;entryDx=0;entryDy=0;strokeColor=#735B00;strokeWidth=3;edgeStyle=orthogonalEdgeStyle;" parent="1" source="iOH8eXoNTPQZBnvEToZv-43" target="iOH8eXoNTPQZBnvEToZv-47" edge="1">
          <mxGeometry width="50" height="50" relative="1" as="geometry">
            <mxPoint x="1187" y="701" as="sourcePoint" />
            <mxPoint x="1327" y="701" as="targetPoint" />
          </mxGeometry>
        </mxCell>
        <mxCell id="iOH8eXoNTPQZBnvEToZv-10" value="functions.py" style="rounded=1;whiteSpace=wrap;html=1;fillColor=#dae8fc;strokeColor=#6c8ebf;" parent="1" vertex="1">
          <mxGeometry x="1166" y="686" width="120" height="60" as="geometry" />
        </mxCell>
        <mxCell id="iOH8eXoNTPQZBnvEToZv-43" value="api_requests.py" style="rounded=1;whiteSpace=wrap;html=1;fillColor=#dae8fc;strokeColor=#6c8ebf;" parent="1" vertex="1">
          <mxGeometry x="1166" y="516" width="120" height="60" as="geometry" />
        </mxCell>
        <mxCell id="iOH8eXoNTPQZBnvEToZv-52" value="&lt;b&gt;&lt;font style=&quot;font-size: 13px;&quot; color=&quot;#ff0000&quot;&gt;templates&lt;/font&gt;&lt;/b&gt;" style="rounded=1;whiteSpace=wrap;html=1;fillColor=#d0cee2;strokeColor=#56517e;verticalAlign=bottom;" parent="1" vertex="1">
          <mxGeometry x="1608" y="190" width="420" height="100" as="geometry" />
        </mxCell>
        <mxCell id="iOH8eXoNTPQZBnvEToZv-53" value="index.html" style="rounded=1;whiteSpace=wrap;html=1;fillColor=#d0cee2;strokeColor=#56517e;" parent="1" vertex="1">
          <mxGeometry x="1628" y="202" width="120" height="60" as="geometry" />
        </mxCell>
        <mxCell id="iOH8eXoNTPQZBnvEToZv-54" value="flights.html" style="rounded=1;whiteSpace=wrap;html=1;fillColor=#d0cee2;strokeColor=#56517e;" parent="1" vertex="1">
          <mxGeometry x="1758" y="202" width="120" height="60" as="geometry" />
        </mxCell>
        <mxCell id="iOH8eXoNTPQZBnvEToZv-55" value="map.hmtl" style="rounded=1;whiteSpace=wrap;html=1;fillColor=#d0cee2;strokeColor=#56517e;" parent="1" vertex="1">
          <mxGeometry x="1888" y="202" width="120" height="60" as="geometry" />
        </mxCell>
        <mxCell id="iOH8eXoNTPQZBnvEToZv-56" value="" style="endArrow=classic;startArrow=classic;html=1;rounded=0;curved=1;entryX=0.5;entryY=1;entryDx=0;entryDy=0;exitX=0.5;exitY=0;exitDx=0;exitDy=0;fillColor=#d0cee2;strokeColor=#56517e;strokeWidth=3;edgeStyle=orthogonalEdgeStyle;startFill=1;" parent="1" source="iOH8eXoNTPQZBnvEToZv-6" target="a6Zs2eqveyUoSRwlcodf-10" edge="1">
          <mxGeometry width="50" height="50" relative="1" as="geometry">
            <mxPoint x="720" y="315" as="sourcePoint" />
            <mxPoint x="730" y="75" as="targetPoint" />
          </mxGeometry>
        </mxCell>
        <mxCell id="a6Zs2eqveyUoSRwlcodf-1" value="&lt;font style=&quot;font-size: 9px;&quot;&gt;load_bson_to_temp_col.py&lt;/font&gt;" style="rounded=1;whiteSpace=wrap;html=1;fillColor=#ffe6cc;strokeColor=#d79b00;" vertex="1" parent="1">
          <mxGeometry x="510" y="636" width="120" height="60" as="geometry" />
        </mxCell>
        <mxCell id="a6Zs2eqveyUoSRwlcodf-2" style="edgeStyle=orthogonalEdgeStyle;curved=1;rounded=0;orthogonalLoop=1;jettySize=auto;html=1;exitX=0.5;exitY=1;exitDx=0;exitDy=0;fillColor=#d80073;strokeColor=#A50040;strokeWidth=2;entryX=0.5;entryY=0;entryDx=0;entryDy=0;" edge="1" parent="1" source="iOH8eXoNTPQZBnvEToZv-6" target="a6Zs2eqveyUoSRwlcodf-1">
          <mxGeometry relative="1" as="geometry">
            <mxPoint x="625" y="435" as="sourcePoint" />
            <mxPoint x="440" y="645" as="targetPoint" />
          </mxGeometry>
        </mxCell>
        <mxCell id="a6Zs2eqveyUoSRwlcodf-3" style="edgeStyle=orthogonalEdgeStyle;curved=1;rounded=0;orthogonalLoop=1;jettySize=auto;html=1;exitX=0.5;exitY=1;exitDx=0;exitDy=0;entryX=0.5;entryY=0;entryDx=0;entryDy=0;entryPerimeter=0;fillColor=#f8cecc;strokeColor=#b85450;strokeWidth=2;" edge="1" parent="1" source="a6Zs2eqveyUoSRwlcodf-1" target="iOH8eXoNTPQZBnvEToZv-42">
          <mxGeometry relative="1" as="geometry">
            <Array as="points">
              <mxPoint x="570" y="1180" />
            </Array>
            <mxPoint x="440" y="705" as="sourcePoint" />
            <mxPoint x="400" y="1190" as="targetPoint" />
          </mxGeometry>
        </mxCell>
        <mxCell id="a6Zs2eqveyUoSRwlcodf-5" value="" style="endArrow=classic;startArrow=classic;html=1;rounded=0;curved=1;exitX=0.5;exitY=0;exitDx=0;exitDy=0;entryX=0.5;entryY=1;entryDx=0;entryDy=0;strokeColor=#735B00;strokeWidth=3;" edge="1" parent="1" source="a6Zs2eqveyUoSRwlcodf-7" target="a6Zs2eqveyUoSRwlcodf-8">
          <mxGeometry width="50" height="50" relative="1" as="geometry">
            <mxPoint x="1619" y="546" as="sourcePoint" />
            <mxPoint x="1669" y="496" as="targetPoint" />
          </mxGeometry>
        </mxCell>
        <mxCell id="a6Zs2eqveyUoSRwlcodf-6" value="" style="endArrow=classic;startArrow=classic;html=1;rounded=0;curved=1;exitX=0.25;exitY=1;exitDx=0;exitDy=0;entryX=0.5;entryY=0;entryDx=0;entryDy=0;strokeColor=#735B00;edgeStyle=orthogonalEdgeStyle;strokeWidth=3;" edge="1" parent="1" target="a6Zs2eqveyUoSRwlcodf-8" source="a6Zs2eqveyUoSRwlcodf-13">
          <mxGeometry width="50" height="50" relative="1" as="geometry">
            <mxPoint x="1659.5100000000002" y="428.48" as="sourcePoint" />
            <mxPoint x="1556" y="835" as="targetPoint" />
            <Array as="points">
              <mxPoint x="1693" y="485" />
              <mxPoint x="1659" y="485" />
            </Array>
          </mxGeometry>
        </mxCell>
        <mxCell id="a6Zs2eqveyUoSRwlcodf-7" value="functions.py" style="rounded=1;whiteSpace=wrap;html=1;fillColor=#dae8fc;strokeColor=#6c8ebf;" vertex="1" parent="1">
          <mxGeometry x="1599" y="686" width="120" height="60" as="geometry" />
        </mxCell>
        <mxCell id="a6Zs2eqveyUoSRwlcodf-8" value="api_requests.py" style="rounded=1;whiteSpace=wrap;html=1;fillColor=#dae8fc;strokeColor=#6c8ebf;" vertex="1" parent="1">
          <mxGeometry x="1599" y="516" width="120" height="60" as="geometry" />
        </mxCell>
        <mxCell id="a6Zs2eqveyUoSRwlcodf-9" value="" style="endArrow=classic;startArrow=classic;html=1;rounded=0;curved=1;exitX=0;exitY=0.5;exitDx=0;exitDy=0;entryX=0.5;entryY=0;entryDx=0;entryDy=0;strokeColor=#735B00;strokeWidth=3;edgeStyle=orthogonalEdgeStyle;" edge="1" parent="1" source="a6Zs2eqveyUoSRwlcodf-8" target="iOH8eXoNTPQZBnvEToZv-47">
          <mxGeometry width="50" height="50" relative="1" as="geometry">
            <mxPoint x="1296" y="556" as="sourcePoint" />
            <mxPoint x="1396" y="81" as="targetPoint" />
          </mxGeometry>
        </mxCell>
        <mxCell id="a6Zs2eqveyUoSRwlcodf-10" value="Requêtes REST (HTTP POST)" style="rounded=0;whiteSpace=wrap;html=1;fillColor=#d5e8d4;strokeColor=#82b366;" vertex="1" parent="1">
          <mxGeometry x="825" width="120" height="60" as="geometry" />
        </mxCell>
        <mxCell id="a6Zs2eqveyUoSRwlcodf-11" value="get_data&lt;br&gt;run_scripts&lt;br&gt;run_scripts_graph" style="rounded=0;whiteSpace=wrap;html=1;fillColor=#d5e8d4;strokeColor=#82b366;" vertex="1" parent="1">
          <mxGeometry x="384" width="120" height="60" as="geometry" />
        </mxCell>
        <mxCell id="a6Zs2eqveyUoSRwlcodf-12" value="" style="endArrow=classic;startArrow=classic;html=1;rounded=0;curved=1;entryX=0.5;entryY=1;entryDx=0;entryDy=0;exitX=0.25;exitY=0;exitDx=0;exitDy=0;fillColor=#d0cee2;strokeColor=#56517e;strokeWidth=3;edgeStyle=orthogonalEdgeStyle;startFill=1;" edge="1" parent="1" source="iOH8eXoNTPQZBnvEToZv-6" target="a6Zs2eqveyUoSRwlcodf-11">
          <mxGeometry width="50" height="50" relative="1" as="geometry">
            <mxPoint x="690" y="375" as="sourcePoint" />
            <mxPoint x="820" y="70" as="targetPoint" />
          </mxGeometry>
        </mxCell>
        <mxCell id="a6Zs2eqveyUoSRwlcodf-13" value="app_form.py" style="rounded=1;whiteSpace=wrap;html=1;fontStyle=1;fillColor=#FF9CE4;" vertex="1" parent="1">
          <mxGeometry x="1569" y="365" width="497" height="60" as="geometry" />
        </mxCell>
        <mxCell id="a6Zs2eqveyUoSRwlcodf-15" value="run_scripts" style="rounded=0;whiteSpace=wrap;html=1;fillColor=#d5e8d4;strokeColor=#82b366;" vertex="1" parent="1">
          <mxGeometry x="2056" width="120" height="60" as="geometry" />
        </mxCell>
        <mxCell id="a6Zs2eqveyUoSRwlcodf-18" value="HTTP" style="rounded=0;whiteSpace=wrap;html=1;fillColor=#d5e8d4;strokeColor=#82b366;" vertex="1" parent="1">
          <mxGeometry x="980" width="120" height="60" as="geometry" />
        </mxCell>
        <mxCell id="a6Zs2eqveyUoSRwlcodf-19" value="" style="endArrow=classic;startArrow=none;html=1;rounded=0;curved=1;entryX=0.5;entryY=1;entryDx=0;entryDy=0;exitX=0.5;exitY=0;exitDx=0;exitDy=0;fillColor=#d0cee2;strokeColor=#56517e;strokeWidth=3;endFill=1;startFill=0;" edge="1" parent="1" source="a6Zs2eqveyUoSRwlcodf-20" target="a6Zs2eqveyUoSRwlcodf-18">
          <mxGeometry width="50" height="50" relative="1" as="geometry">
            <mxPoint x="1040" y="330" as="sourcePoint" />
            <mxPoint x="1090" y="280" as="targetPoint" />
          </mxGeometry>
        </mxCell>
        <mxCell id="a6Zs2eqveyUoSRwlcodf-21" value="index.html" style="rounded=1;whiteSpace=wrap;html=1;fillColor=#d0cee2;strokeColor=#56517e;" vertex="1" parent="1">
          <mxGeometry x="980" y="202" width="120" height="60" as="geometry" />
        </mxCell>
        <mxCell id="a6Zs2eqveyUoSRwlcodf-26" value="" style="endArrow=classic;startArrow=none;html=1;rounded=0;curved=1;exitX=0.75;exitY=0;exitDx=0;exitDy=0;fillColor=#d0cee2;strokeColor=#56517e;strokeWidth=3;endFill=1;startFill=0;edgeStyle=orthogonalEdgeStyle;" edge="1" parent="1" source="iOH8eXoNTPQZBnvEToZv-6">
          <mxGeometry width="50" height="50" relative="1" as="geometry">
            <mxPoint x="1050" y="200" as="sourcePoint" />
            <mxPoint x="1040" y="295" as="targetPoint" />
          </mxGeometry>
        </mxCell>
        <mxCell id="a6Zs2eqveyUoSRwlcodf-32" value="" style="endArrow=classic;startArrow=classic;html=1;rounded=0;curved=1;entryX=0;entryY=0.5;entryDx=0;entryDy=0;exitX=1;exitY=0.5;exitDx=0;exitDy=0;fillColor=#d0cee2;strokeColor=#56517e;strokeWidth=3;edgeStyle=orthogonalEdgeStyle;startFill=1;" edge="1" parent="1" source="iOH8eXoNTPQZBnvEToZv-6" target="a6Zs2eqveyUoSRwlcodf-13">
          <mxGeometry width="50" height="50" relative="1" as="geometry">
            <mxPoint x="690" y="375" as="sourcePoint" />
            <mxPoint x="820" y="70" as="targetPoint" />
          </mxGeometry>
        </mxCell>
        <mxCell id="a6Zs2eqveyUoSRwlcodf-34" value="&lt;span style=&quot;text-wrap-mode: nowrap; font-size: 11px;&quot;&gt;Prédiction retard&lt;/span&gt;&lt;br style=&quot;text-wrap-mode: nowrap; font-size: 11px;&quot;&gt;&lt;span style=&quot;text-wrap-mode: nowrap; font-size: 11px;&quot;&gt;(HTTP POST)&lt;/span&gt;" style="rounded=0;whiteSpace=wrap;html=1;fillColor=#d5e8d4;strokeColor=#82b366;" vertex="1" parent="1">
          <mxGeometry x="1386" y="325" width="120" height="60" as="geometry" />
        </mxCell>
        <mxCell id="a6Zs2eqveyUoSRwlcodf-35" value="&lt;b&gt;&lt;font color=&quot;#ff9999&quot; style=&quot;font-size: 14px;&quot;&gt;app_credentials&lt;/font&gt;&lt;/b&gt;" style="shape=cylinder3;whiteSpace=wrap;html=1;boundedLbl=1;backgroundOutline=1;size=15;verticalAlign=bottom;fillColor=#ffcc99;strokeColor=#36393d;fillStyle=hatch;" vertex="1" parent="1">
          <mxGeometry x="1366" y="1100" width="160" height="240" as="geometry" />
        </mxCell>
        <mxCell id="a6Zs2eqveyUoSRwlcodf-36" value="users" style="shape=cylinder3;whiteSpace=wrap;html=1;boundedLbl=1;backgroundOutline=1;size=15;" vertex="1" parent="1">
          <mxGeometry x="1417" y="1180" width="60" height="80" as="geometry" />
        </mxCell>
        <mxCell id="a6Zs2eqveyUoSRwlcodf-37" value="" style="endArrow=classic;startArrow=none;html=1;rounded=0;curved=1;exitX=0.5;exitY=0;exitDx=0;exitDy=0;fillColor=#d0cee2;strokeColor=#56517e;strokeWidth=3;endFill=1;startFill=0;edgeStyle=orthogonalEdgeStyle;entryX=0.5;entryY=1;entryDx=0;entryDy=0;" edge="1" parent="1" source="a6Zs2eqveyUoSRwlcodf-13" target="iOH8eXoNTPQZBnvEToZv-52">
          <mxGeometry width="50" height="50" relative="1" as="geometry">
            <mxPoint x="1061" y="375" as="sourcePoint" />
            <mxPoint x="1156" y="305" as="targetPoint" />
          </mxGeometry>
        </mxCell>
        <mxCell id="a6Zs2eqveyUoSRwlcodf-39" value="test_pred_distant.py" style="rounded=1;whiteSpace=wrap;html=1;fillColor=#ffe6cc;strokeColor=#d79b00;" vertex="1" parent="1">
          <mxGeometry x="1870" y="581" width="120" height="60" as="geometry" />
        </mxCell>
        <mxCell id="a6Zs2eqveyUoSRwlcodf-40" value="" style="endArrow=classic;startArrow=classic;html=1;rounded=0;curved=1;exitX=0.75;exitY=0;exitDx=0;exitDy=0;fillColor=#d0cee2;strokeColor=#56517e;strokeWidth=3;endFill=1;startFill=1;edgeStyle=orthogonalEdgeStyle;entryX=0.5;entryY=1;entryDx=0;entryDy=0;" edge="1" parent="1" source="a6Zs2eqveyUoSRwlcodf-13" target="a6Zs2eqveyUoSRwlcodf-15">
          <mxGeometry width="50" height="50" relative="1" as="geometry">
            <mxPoint x="2109" y="375" as="sourcePoint" />
            <mxPoint x="2246" y="105" as="targetPoint" />
            <Array as="points">
              <mxPoint x="1942" y="315" />
              <mxPoint x="2116" y="315" />
            </Array>
          </mxGeometry>
        </mxCell>
        <mxCell id="a6Zs2eqveyUoSRwlcodf-41" style="edgeStyle=orthogonalEdgeStyle;curved=1;rounded=0;orthogonalLoop=1;jettySize=auto;html=1;exitX=0.5;exitY=1;exitDx=0;exitDy=0;entryX=0.5;entryY=0;entryDx=0;entryDy=0;fillColor=#d80073;strokeColor=#A50040;strokeWidth=2;" edge="1" parent="1" source="a6Zs2eqveyUoSRwlcodf-13" target="a6Zs2eqveyUoSRwlcodf-39">
          <mxGeometry relative="1" as="geometry">
            <mxPoint x="1976" y="495" as="sourcePoint" />
            <mxPoint x="2096" y="605" as="targetPoint" />
          </mxGeometry>
        </mxCell>
        <mxCell id="a6Zs2eqveyUoSRwlcodf-42" value="test_col" style="shape=cylinder3;whiteSpace=wrap;html=1;boundedLbl=1;backgroundOutline=1;size=15;" vertex="1" parent="1">
          <mxGeometry x="1900" y="1180" width="60" height="80" as="geometry" />
        </mxCell>
        <mxCell id="a6Zs2eqveyUoSRwlcodf-44" style="edgeStyle=orthogonalEdgeStyle;curved=1;rounded=0;orthogonalLoop=1;jettySize=auto;html=1;exitX=1;exitY=0.5;exitDx=0;exitDy=0;entryX=1;entryY=0.5;entryDx=0;entryDy=0;fillColor=#d5e8d4;strokeColor=#82b366;strokeWidth=2;exitPerimeter=0;" edge="1" parent="1" source="iOH8eXoNTPQZBnvEToZv-15" target="a6Zs2eqveyUoSRwlcodf-13">
          <mxGeometry relative="1" as="geometry">
            <Array as="points">
              <mxPoint x="1796" y="1220" />
              <mxPoint x="1796" y="1015" />
              <mxPoint x="2186" y="1015" />
              <mxPoint x="2186" y="395" />
            </Array>
            <mxPoint x="2436" y="1220" as="sourcePoint" />
            <mxPoint x="2456" y="395" as="targetPoint" />
          </mxGeometry>
        </mxCell>
        <mxCell id="a6Zs2eqveyUoSRwlcodf-46" style="edgeStyle=orthogonalEdgeStyle;curved=1;rounded=0;orthogonalLoop=1;jettySize=auto;html=1;exitX=0.5;exitY=0;exitDx=0;exitDy=0;entryX=0.5;entryY=1;entryDx=0;entryDy=0;fillColor=#dae8fc;strokeColor=#6c8ebf;strokeWidth=2;exitPerimeter=0;" edge="1" parent="1" source="a6Zs2eqveyUoSRwlcodf-42" target="a6Zs2eqveyUoSRwlcodf-39">
          <mxGeometry relative="1" as="geometry">
            <Array as="points">
              <mxPoint x="1930" y="1085" />
              <mxPoint x="1930" y="1085" />
            </Array>
            <mxPoint x="2316" y="1235" as="sourcePoint" />
            <mxPoint x="2136" y="785" as="targetPoint" />
          </mxGeometry>
        </mxCell>
        <mxCell id="a6Zs2eqveyUoSRwlcodf-47" value="&lt;font style=&quot;font-size: 12px;&quot;&gt;test_pred_.py&lt;/font&gt;" style="rounded=1;whiteSpace=wrap;html=1;fillColor=#ffe6cc;strokeColor=#d79b00;" vertex="1" parent="1">
          <mxGeometry x="650" y="636" width="120" height="60" as="geometry" />
        </mxCell>
        <mxCell id="a6Zs2eqveyUoSRwlcodf-48" style="edgeStyle=orthogonalEdgeStyle;curved=1;rounded=0;orthogonalLoop=1;jettySize=auto;html=1;exitX=0.5;exitY=1;exitDx=0;exitDy=0;entryX=0.5;entryY=0;entryDx=0;entryDy=0;fillColor=#d80073;strokeColor=#A50040;strokeWidth=2;" edge="1" parent="1" source="iOH8eXoNTPQZBnvEToZv-6" target="a6Zs2eqveyUoSRwlcodf-47">
          <mxGeometry relative="1" as="geometry">
            <mxPoint x="745" y="435" as="sourcePoint" />
            <mxPoint x="950" y="545" as="targetPoint" />
            <Array as="points">
              <mxPoint x="735" y="550" />
              <mxPoint x="710" y="550" />
            </Array>
          </mxGeometry>
        </mxCell>
        <mxCell id="a6Zs2eqveyUoSRwlcodf-50" value="test_col" style="shape=cylinder3;whiteSpace=wrap;html=1;boundedLbl=1;backgroundOutline=1;size=15;" vertex="1" parent="1">
          <mxGeometry x="910" y="1180" width="60" height="80" as="geometry" />
        </mxCell>
        <mxCell id="a6Zs2eqveyUoSRwlcodf-51" style="edgeStyle=orthogonalEdgeStyle;curved=1;rounded=0;orthogonalLoop=1;jettySize=auto;html=1;exitX=0.5;exitY=0;exitDx=0;exitDy=0;entryX=0.5;entryY=1;entryDx=0;entryDy=0;fillColor=#dae8fc;strokeColor=#6c8ebf;strokeWidth=2;exitPerimeter=0;" edge="1" parent="1" source="a6Zs2eqveyUoSRwlcodf-50" target="a6Zs2eqveyUoSRwlcodf-47">
          <mxGeometry relative="1" as="geometry">
            <Array as="points">
              <mxPoint x="940" y="1015" />
              <mxPoint x="710" y="1015" />
            </Array>
            <mxPoint x="650" y="1155" as="sourcePoint" />
            <mxPoint x="470" y="705" as="targetPoint" />
          </mxGeometry>
        </mxCell>
        <mxCell id="a6Zs2eqveyUoSRwlcodf-58" value="" style="shape=flexArrow;endArrow=classic;html=1;rounded=0;exitX=0.855;exitY=0;exitDx=0;exitDy=4.35;exitPerimeter=0;entryX=0.082;entryY=0.994;entryDx=0;entryDy=0;entryPerimeter=0;strokeColor=#6C8EBF;" edge="1" parent="1" source="a6Zs2eqveyUoSRwlcodf-36" target="a6Zs2eqveyUoSRwlcodf-14">
          <mxGeometry width="50" height="50" relative="1" as="geometry">
            <mxPoint x="1520" y="1040" as="sourcePoint" />
            <mxPoint x="1570" y="990" as="targetPoint" />
          </mxGeometry>
        </mxCell>
        <mxCell id="a6Zs2eqveyUoSRwlcodf-59" value="" style="shape=flexArrow;endArrow=classic;html=1;rounded=0;exitX=0.145;exitY=0;exitDx=0;exitDy=4.35;exitPerimeter=0;entryX=0.939;entryY=0.992;entryDx=0;entryDy=0;entryPerimeter=0;strokeColor=#6C8EBF;" edge="1" parent="1" source="a6Zs2eqveyUoSRwlcodf-36" target="iOH8eXoNTPQZBnvEToZv-1">
          <mxGeometry width="50" height="50" relative="1" as="geometry">
            <mxPoint x="1478" y="1194" as="sourcePoint" />
            <mxPoint x="1596" y="969" as="targetPoint" />
          </mxGeometry>
        </mxCell>
        <mxCell id="a6Zs2eqveyUoSRwlcodf-60" value="&lt;font color=&quot;#ff0000&quot;&gt;admin&lt;/font&gt;" style="html=1;verticalLabelPosition=bottom;align=center;labelBackgroundColor=#ffffff;verticalAlign=top;strokeWidth=2;strokeColor=#FF0000;shadow=0;dashed=0;shape=mxgraph.ios7.icons.locked;fillColor=default;" vertex="1" parent="1">
          <mxGeometry x="460" y="150" width="24" height="30" as="geometry" />
        </mxCell>
        <mxCell id="a6Zs2eqveyUoSRwlcodf-61" value="&lt;font color=&quot;#ff0000&quot;&gt;admin&lt;/font&gt;" style="html=1;verticalLabelPosition=bottom;align=center;labelBackgroundColor=#ffffff;verticalAlign=top;strokeWidth=2;strokeColor=#FF0000;shadow=0;dashed=0;shape=mxgraph.ios7.icons.locked;fillColor=default;" vertex="1" parent="1">
          <mxGeometry x="2133" y="150" width="24" height="30" as="geometry" />
        </mxCell>
        <mxCell id="a6Zs2eqveyUoSRwlcodf-64" value="&lt;font color=&quot;#ff0000&quot;&gt;users&lt;/font&gt;" style="html=1;verticalLabelPosition=bottom;align=center;labelBackgroundColor=#ffffff;verticalAlign=top;strokeWidth=2;strokeColor=#FF0000;shadow=0;dashed=0;shape=mxgraph.ios7.icons.locked;fillColor=default;" vertex="1" parent="1">
          <mxGeometry x="1640" y="130" width="24" height="30" as="geometry" />
        </mxCell>
        <mxCell id="a6Zs2eqveyUoSRwlcodf-68" value="&lt;font color=&quot;#ff0000&quot;&gt;API KEY&lt;/font&gt;" style="points=[[0,0.5,0],[0.24,0,0],[0.5,0.28,0],[0.995,0.475,0],[0.5,0.72,0],[0.24,1,0]];verticalLabelPosition=bottom;sketch=0;html=1;verticalAlign=top;aspect=fixed;align=center;pointerEvents=1;shape=mxgraph.cisco19.key;fillColor=#FF0000;strokeColor=none;" vertex="1" parent="1">
          <mxGeometry x="790" y="228.75" width="50" height="22.5" as="geometry" />
        </mxCell>
        <mxCell id="a6Zs2eqveyUoSRwlcodf-72" value="&lt;font color=&quot;#ff0000&quot;&gt;API KEY&lt;/font&gt;" style="points=[[0,0.5,0],[0.24,0,0],[0.5,0.28,0],[0.995,0.475,0],[0.5,0.72,0],[0.24,1,0]];verticalLabelPosition=bottom;sketch=0;html=1;verticalAlign=top;aspect=fixed;align=center;pointerEvents=1;shape=mxgraph.cisco19.key;fillColor=#FF0000;strokeColor=none;" vertex="1" parent="1">
          <mxGeometry x="1422" y="410" width="50" height="22.5" as="geometry" />
        </mxCell>
        <mxCell id="a6Zs2eqveyUoSRwlcodf-76" value="&lt;font color=&quot;#735b00&quot;&gt;API KEY&lt;/font&gt;" style="points=[[0,0.5,0],[0.24,0,0],[0.5,0.28,0],[0.995,0.475,0],[0.5,0.72,0],[0.24,1,0]];verticalLabelPosition=bottom;sketch=0;html=1;verticalAlign=top;aspect=fixed;align=center;pointerEvents=1;shape=mxgraph.cisco19.key;fillColor=#735B00;strokeColor=#735B00;" vertex="1" parent="1">
          <mxGeometry x="1422" y="516" width="50" height="22.5" as="geometry" />
        </mxCell>
      </root>
    </mxGraphModel>
  </diagram>
</mxfile>
